<?xml version="1.0" ?><!DOCTYPE svg  PUBLIC '-//W3C//DTD SVG 1.1//EN'  'http://www.w3.org/Graphics/SVG/1.1/DTD/svg11.dtd'><svg height="512px" style="enable-background:new 0 0 512 512;" version="1.1" viewBox="0 0 512 512" width="512px" xml:space="preserve" xmlns="http://www.w3.org/2000/svg" xmlns:xlink="http://www.w3.org/1999/xlink"><g id="_x36_7_x2C__team_x2C__group_x2C__leadership_x2C__business_x2C__teamwork"><g><path d="M279.308,189.43h-46.615c0.189-0.434,0.297-0.865,0.297-1.353v-20.495h46.021v20.495    C279.011,188.564,279.118,188.996,279.308,189.43 M256.001,43.418c12.897,0,23.36,10.437,23.36,23.361    c0,12.898-10.463,23.361-23.36,23.361c-12.899,0-23.363-10.463-23.363-23.361C232.638,53.854,243.102,43.418,256.001,43.418z     M368.051,267.572l-23.281-40.369c0.432-0.027,0.893-0.189,1.299-0.406l17.764-10.274l23.012,39.883l-17.766,10.248    C368.674,266.896,368.32,267.194,368.051,267.572z M482.86,174.396c6.461,11.167,2.621,25.444-8.546,31.906    c-11.167,6.436-25.47,2.622-31.904-8.544c-6.463-11.194-2.624-25.472,8.544-31.934    C462.121,159.389,476.397,163.201,482.86,174.396z M334.333,209.168c-0.894-1.596-0.351-3.623,1.216-4.543l62.759-36.232    c3.435-1.974,7.489-2.108,11.248-0.703c3.543,1.324,6.842,4.029,9.005,7.787l31.203,54.025c2.164,3.758,2.866,7.976,2.244,11.707    c-0.675,3.976-2.813,7.41-6.246,9.41l-62.73,36.205c-1.596,0.92-3.624,0.379-4.543-1.217l-7.383-12.789    c0.46-0.027,0.893-0.162,1.299-0.405c16.142-9.329,32.285-18.63,48.428-27.958c1.568-0.92,2.135-2.948,1.216-4.543    c-0.92-1.596-2.946-2.137-4.542-1.217l-16.873,9.734l-19.387-33.557c-0.92-1.568-2.947-2.136-4.543-1.216    c-1.568,0.919-2.136,2.974-1.216,4.542l19.386,33.557l-2.27,1.324l-23.011-39.856l24.901-14.385    c1.569-0.919,2.138-2.946,1.219-4.542c-0.92-1.596-2.975-2.137-4.543-1.217c-16.143,9.328-32.285,18.63-48.428,27.959    c-0.406,0.242-0.757,0.539-1.027,0.919L334.333,209.168z M344.77,383.517l23.281-40.343c0.27,0.352,0.623,0.677,1.027,0.893    l17.766,10.275l-23.012,39.856l-17.764-10.249C345.662,383.706,345.201,383.571,344.77,383.517z M482.86,436.352    c-6.437,11.167-20.739,15.007-31.906,8.545c-11.168-6.463-15.007-20.739-8.544-31.907c6.435-11.194,20.737-15.007,31.904-8.544    C485.481,410.881,489.321,425.158,482.86,436.352z M378.488,325.112c0.919-1.596,2.947-2.136,4.543-1.217l62.73,36.232    c3.434,1.974,5.598,5.435,6.246,9.382c0.622,3.732-0.08,7.951-2.244,11.709l-31.203,54.024c-2.163,3.759-5.462,6.462-9.005,7.787    c-3.759,1.406-7.813,1.298-11.248-0.703l-62.759-36.206c-1.566-0.918-2.109-2.974-1.216-4.542l7.382-12.789    c0.271,0.351,0.621,0.675,1.027,0.919c16.143,9.301,32.285,18.631,48.428,27.932c1.594,0.92,3.623,0.378,4.543-1.217    c0.919-1.568,0.379-3.623-1.219-4.516l-16.871-9.762l19.359-33.555c0.92-1.596,0.379-3.623-1.216-4.543s-3.624-0.379-4.543,1.217    l-19.36,33.555l-2.271-1.297l23.011-39.855l24.902,14.357c1.596,0.919,3.622,0.379,4.542-1.217    c0.919-1.568,0.379-3.623-1.216-4.516c-16.143-9.328-32.286-18.657-48.428-27.959c-0.406-0.243-0.839-0.379-1.299-0.432    L378.488,325.112z M143.921,343.174l23.309,40.343c-0.432,0.055-0.892,0.189-1.297,0.433l-17.765,10.249l-23.012-39.856    l17.765-10.248C143.327,343.851,143.679,343.525,143.921,343.174z M29.14,436.352c-6.461-11.167-2.622-25.471,8.546-31.906    c11.167-6.463,25.47-2.623,31.906,8.544c6.461,11.168,2.622,25.472-8.545,31.907C49.879,451.358,35.603,447.519,29.14,436.352z     M177.667,401.579c0.893,1.568,0.351,3.624-1.216,4.542l-62.759,36.206c-3.434,2.001-7.489,2.109-11.248,0.703    c-3.543-1.325-6.842-4.028-9.003-7.787l-31.205-54.024c-2.162-3.758-2.866-7.977-2.245-11.682    c0.677-3.975,2.813-7.436,6.247-9.409l62.73-36.232c1.595-0.919,3.624-0.379,4.543,1.217l7.382,12.79    c-0.46,0.053-0.893,0.188-1.298,0.432c-16.142,9.302-32.286,18.631-48.428,27.959c-1.569,0.893-2.136,2.947-1.216,4.516    c0.92,1.596,2.946,2.136,4.542,1.217l16.874-9.734l19.387,33.556c0.919,1.596,2.948,2.136,4.543,1.217    c1.569-0.919,2.136-2.947,1.216-4.542l-19.386-33.557l2.271-1.297l23.012,39.855l-24.903,14.385    c-1.569,0.919-2.137,2.947-1.218,4.543c0.919,1.567,2.948,2.109,4.543,1.217c16.142-9.328,32.286-18.658,48.428-27.959    c0.405-0.244,0.756-0.568,1.026-0.919L177.667,401.579z M167.23,227.203l-23.309,40.369c-0.242-0.378-0.595-0.676-1-0.919    l-17.765-10.248l23.012-39.855l17.765,10.247C166.338,227.041,166.77,227.176,167.23,227.203z M29.14,174.396    c6.437-11.167,20.739-15.007,31.907-8.544c11.167,6.435,15.007,20.738,8.545,31.906c-6.436,11.166-20.739,15.007-31.906,8.544    C26.518,199.84,22.679,185.563,29.14,174.396z M133.512,285.635c-0.919,1.568-2.948,2.109-4.543,1.217l-62.73-36.232    c-3.434-2-5.598-5.435-6.247-9.41c-0.621-3.731,0.083-7.922,2.245-11.68l31.176-54.053c2.19-3.73,5.489-6.463,9.032-7.787    c3.759-1.405,7.814-1.271,11.248,0.703l62.73,36.232c1.595,0.92,2.137,2.947,1.244,4.543l-7.382,12.79    c-0.27-0.38-0.621-0.677-1.026-0.919c-16.142-9.329-32.286-18.631-48.428-27.959c-1.595-0.92-3.624-0.379-4.543,1.217    s-0.377,3.623,1.218,4.542l16.872,9.734l-19.36,33.556c-0.919,1.596-0.379,3.623,1.216,4.543c1.569,0.92,3.624,0.378,4.543-1.217    l19.36-33.557l2.272,1.325l-23.012,39.856l-24.903-14.385c-1.595-0.92-3.622-0.379-4.542,1.217    c-0.919,1.595-0.379,3.623,1.216,4.543c16.142,9.328,32.286,18.629,48.428,27.958c0.405,0.243,0.838,0.378,1.298,0.433    L133.512,285.635z M256.001,260.354c24.875,0,45.02,20.144,45.02,45.02c0,24.85-20.145,45.021-45.02,45.021    c-24.877,0-45.021-20.172-45.021-45.021C210.979,280.497,231.124,260.354,256.001,260.354z M328.275,274.089l21.551-17.169    l-4.947-8.572l-27.688,10.869l-15.035-15.033l10.871-27.688l-8.572-4.947l-18.521,23.253l-20.578-5.516l-4.408-29.392h-9.895    l-4.408,29.392l-20.576,5.516l-18.523-23.253l-8.57,4.947l10.895,27.688l-15.059,15.033l-27.688-10.869l-4.948,8.572    l23.254,18.521l-5.517,20.549l-29.392,4.408v9.924l29.392,4.406l5.517,20.577l-23.254,18.522l4.948,8.571l27.688-10.897    l15.059,15.062l-10.895,27.688l8.57,4.947l18.523-23.254l20.576,5.489l4.408,29.393h9.895l4.408-29.393l20.578-5.489    l18.521,23.254l8.572-4.947l-10.871-27.688l15.035-15.062l27.688,10.897l4.947-8.571l-23.253-18.522l5.516-20.577l29.392-4.406    v-9.896l-29.392-4.436l-5.516-20.549L328.275,274.089z M142.11,454.576c-1.839,0-3.325-1.487-3.325-3.326    c0-1.812,1.486-3.325,3.325-3.325h172.972c1.837,0,3.324,1.514,3.324,3.325c0,1.839-1.487,3.326-3.324,3.326H142.11z     M394.549,447.925c1.813,0,3.299,1.514,3.299,3.325c0,1.839-1.486,3.326-3.299,3.326h-49.21c-1.813,0-3.327-1.487-3.327-3.326    c0-1.812,1.514-3.325,3.327-3.325H394.549z M333.468,461.931c1.812,0,3.299,1.487,3.299,3.326s-1.487,3.326-3.299,3.326H221.985    c-1.839,0-3.327-1.487-3.327-3.326s1.488-3.326,3.327-3.326H333.468z M81.029,468.583c-1.839,0-3.327-1.487-3.327-3.326    s1.488-3.326,3.327-3.326h49.184c1.839,0,3.325,1.487,3.325,3.326s-1.486,3.326-3.325,3.326H81.029z M173.612,468.583    c-1.839,0-3.327-1.487-3.327-3.326s1.488-3.326,3.327-3.326h22.415c1.839,0,3.326,1.487,3.326,3.326s-1.486,3.326-3.326,3.326    H173.612z M211.844,189.43c-1.811,0-3.299-1.515-3.299-3.326v-72.465c0-3.948,1.92-7.545,5.003-10.086    c2.92-2.406,6.922-3.92,11.248-3.92h62.408c4.325,0,8.327,1.514,11.221,3.92c3.11,2.541,5.029,6.138,5.029,10.086v72.465    c0,1.812-1.487,3.326-3.299,3.326h-14.791c0.189-0.434,0.297-0.865,0.297-1.353c0-18.63,0-37.26,0-55.917    c0-1.839-1.486-3.326-3.325-3.326s-3.325,1.487-3.325,3.326v19.495h-38.748c-1.837,0-3.325,1.487-3.325,3.326    s1.488,3.325,3.325,3.325h38.748v2.623h-46.021v-28.77c0-1.839-1.486-3.326-3.325-3.326c-1.839,0-3.326,1.487-3.326,3.326    c0,18.657,0,37.287,0,55.917c0,0.487,0.107,0.919,0.297,1.353H211.844z"/></g></g><g id="Layer_1"/></svg>